<svg xmlns="http://www.w3.org/2000/svg" viewBox="0 0 900 900" width="900" height="900">
  <!-- WEEK 2: INVERTED — orange bg -->
  <rect width="900" height="900" fill="#ea580c"/>
  <!-- Corner marks (inverted) -->
  <rect x="60" y="60" width="30" height="2" fill="#0a0a0a"/>
  <rect x="60" y="60" width="2" height="30" fill="#0a0a0a"/>
  <rect x="810" y="60" width="30" height="2" fill="#0a0a0a"/>
  <rect x="838" y="60" width="2" height="30" fill="#0a0a0a"/>
  <rect x="60" y="838" width="30" height="2" fill="#0a0a0a"/>
  <rect x="60" y="810" width="2" height="30" fill="#0a0a0a"/>
  <rect x="810" y="838" width="30" height="2" fill="#0a0a0a"/>
  <rect x="838" y="810" width="2" height="30" fill="#0a0a0a"/>
  <!-- Rule -->
  <rect x="80" y="130" width="740" height="2" fill="#d44f0b"/>
  <!-- Series label -->
  <text x="80" y="105" font-family="'Arial Black', Arial, sans-serif" font-size="11" font-weight="900" fill="#0a0a0a" letter-spacing="12">ELECTRIC AVENUE</text>
  <!-- Main text -->
  <text x="80" y="340" font-family="'Arial Black', Arial, sans-serif" font-size="130" font-weight="900" fill="#0a0a0a" letter-spacing="-6">FOR</text>
  <text x="80" y="470" font-family="'Arial Black', Arial, sans-serif" font-size="130" font-weight="900" fill="#0a0a0a" letter-spacing="-6">GOT</text>
  <text x="80" y="600" font-family="'Arial Black', Arial, sans-serif" font-size="130" font-weight="900" fill="#ffffff" letter-spacing="-6">TEN.</text>
  <!-- Info -->
  <rect x="80" y="638" width="400" height="2" fill="#d44f0b"/>
  <text x="80" y="672" font-family="Arial, sans-serif" font-size="14" fill="#0a0a0a" letter-spacing="5">BANGERS SIN CLASIFICAR</text>
  <text x="80" y="700" font-family="Arial, sans-serif" font-size="12" fill="#c04000" letter-spacing="4">RARE · LOST · REDISCOVERED</text>
  <!-- Right date -->
  <text x="820" y="672" font-family="'Arial Black', Arial, sans-serif" font-size="52" font-weight="900" fill="#d44f0b" text-anchor="end">10</text>
  <text x="820" y="720" font-family="'Arial Black', Arial, sans-serif" font-size="52" font-weight="900" fill="#d44f0b" text-anchor="end">ABR</text>
  <!-- Bottom -->
  <rect x="0" y="840" width="900" height="60" fill="#0a0a0a"/>
  <text x="80" y="878" font-family="'Arial Black', Arial, sans-serif" font-size="14" font-weight="900" fill="#555" letter-spacing="4">MAT32 · RUZAFA</text>
  <text x="820" y="878" font-family="'Arial Black', Arial, sans-serif" font-size="14" font-weight="900" fill="#ea580c" text-anchor="end" letter-spacing="4">21:00H · ENTRADA LIBRE</text>
</svg>
